<svg xmlns="http://www.w3.org/2000/svg" width="160" height="25" viewBox="0 0 160 25">
    <g fill="none" fill-rule="evenodd">
        <g fill-rule="nonzero">
            <g>
                <g>
                    <path fill="#E76A25" d="M14.888.397c-21.28.952-13.141 24.286-13.141 24.286 1.866-2.024 7.821-6.826 16.198-6.866h.04c4.05 0 6.432 3.413 5.519 6.826 0 0 6.273-7.381 2.779-15.754-1.151-2.778-4.288-4.881-7.98-4.881-1.231 0-2.541.238-3.851.754-3.057 1.23-3.494 4.008-2.859 5.317.476.953 1.39 1.39 2.342 1.39.16 0 .318 0 .517-.04 3.096-.477 4.327-1.905 5.042-1.905.119 0 .198.04.278.08.436.356.04 1.785-3.93 3.372-.954.397-2.7.834-4.447.834-2.025 0-4.01-.596-4.646-2.66-1.23-3.769 3.216-8.293 9.886-8.809.318-.04.794-.04 1.112-.04 3.375 0 5.836 1.509 7.027 2.54C23.384 2.54 20.486.397 15.801.317c0 .12-.397.08-.913.08" transform="translate(-85 -85) translate(85 15) translate(0 70)"/>
                    <path fill="#000" d="M58.6 5.556v7.857h6.591c2.859 0 4.13-1.826 4.13-3.85 0-1.944-1.271-3.968-4.13-3.968h-6.59v-.04zm15.206 18.452h-4.05l-6.59-7.46H58.6v7.46h-3.454V2.38h10.085c5.002 0 7.623 3.413 7.623 7.063 0 3.096-1.588 6.112-5.876 6.746l6.828 7.818zM117.32 20.675h4.764c5.28 0 7.504-3.89 7.425-7.699-.08-3.65-2.303-7.301-7.425-7.301h-4.764v15zm4.764-18.294c7.385 0 10.76 5.278 10.84 10.635.118 5.476-3.296 10.992-10.84 10.992h-8.178V2.38h8.178zM135.583 2.381H138.99699999999999V24.008H135.583zM156.189 7.183c-1.033-1.469-3.097-2.381-5.36-2.421-2.898 0-5.003 1.19-5.003 3.294 0 2.103 2.422 2.698 5.241 3.095 4.447.635 8.695 1.865 8.695 6.706-.04 4.841-4.447 6.667-8.973 6.667-4.129 0-7.345-1.27-9.29-4.92l2.58-1.747c1.549 2.62 4.249 3.572 6.75 3.572 2.58 0 5.479-.873 5.479-3.572 0-2.341-2.502-3.135-5.519-3.571-4.288-.596-8.377-1.667-8.377-6.31-.04-4.484 4.447-6.19 8.337-6.19 3.137 0 6.234.754 8.06 3.65l-2.62 1.747zM53.955 24.008L44.228 2.381 40.457 2.381 30.769 24.008 34.422 24.008 42.362 6.032 46.888 16.31 39.702 16.31 38.313 19.484 48.278 19.484 50.263 24.008zM102.988 2.381h-3.772l-6.313 14.048c-.675 1.349-1.43 2.182-1.667 2.46-1.509 1.508-3.732 2.341-5.717 2.341-5.598 0-7.94-3.928-7.98-7.897-.04-3.968 2.461-8.016 7.98-8.016 2.024 0 4.05.715 5.598 2.223l2.302-2.223c-2.183-2.182-5.002-3.293-7.9-3.293-7.742 0-11.435 5.635-11.395 11.349.04 5.675 3.573 11.111 11.395 11.111 3.017 0 5.915-1.032 8.139-3.214 0 0 1.39-1.389 2.263-3.413l.278-.635.635-1.428 4.288-9.723 4.526 10.278H98.5l-1.39 3.135h9.926l1.985 4.524h3.693L102.988 2.38z" transform="translate(-85 -85) translate(85 15) translate(0 70)"/>
                </g>
            </g>
        </g>
    </g>
</svg>
